<?xml version="1.0" encoding="UTF-8" standalone="no"?>
<svg width="1173px" height="1360px" viewBox="0 0 1173 1360" version="1.1" xmlns="http://www.w3.org/2000/svg" xmlns:xlink="http://www.w3.org/1999/xlink">
    <!-- Generator: Sketch 3.6.1 (26313) - http://www.bohemiancoding.com/sketch -->
    <title>Group 11</title>
    <desc>Created with Sketch.</desc>
    <defs></defs>
    <g id="Page-1" stroke="none" stroke-width="1" fill="none" fill-rule="evenodd" opacity="0.368994869">
        <g id="Labs" transform="translate(-127.000000, -95.000000)">
            <g id="Group-11" transform="translate(127.000000, 95.000000)">
                <g id="Group-6" opacity="0.3" transform="translate(0.000000, 389.000000)">
                    <path d="M115.116914,233.811623 C115.116914,236.517034 112.926596,238.705411 110.218785,238.705411 C107.523009,238.705411 105.33269,236.517034 105.33269,233.811623 C105.33269,231.118236 107.523009,228.92986 110.218785,228.92986 C112.926596,228.92986 115.116914,231.118236 115.116914,233.811623" id="Fill-40" fill="#BDBDBD"></path>
                    <g id="Group-5">
                        <path d="M177.216046,45.0561122 C173.557493,36.4108216 168.322392,28.6432866 161.655159,21.9819639 C154.975892,15.3206413 147.2135,10.0781563 138.56054,6.42284569 C129.606712,2.64729459 120.087252,0.723446894 110.278959,0.723446894 C100.4827,0.723446894 90.9632401,2.64729459 82.0094118,6.42284569 C73.3564513,10.0781563 65.5820251,15.3206413 58.9147927,21.9819639 C52.2475603,28.6432866 47.012459,36.4108216 43.3539055,45.0561122 C39.5629701,54.002004 37.6374156,63.501002 37.6374156,73.3006012 L38.9010608,73.3006012 C38.9010608,33.9819639 70.9254388,1.98597194 110.278959,1.98597194 C149.644513,1.98597194 181.668891,33.9819639 181.668891,73.3006012 C181.668891,112.631263 149.644513,144.61523 110.290993,144.61523 L110.290993,145.877756 C120.087252,145.877756 129.606712,143.965932 138.56054,140.178357 C147.2135,136.523046 154.975892,131.292585 161.655159,124.619238 C168.322392,117.957916 173.557493,110.202405 177.216046,101.557114 C181.006982,92.6112224 182.932536,83.1002004 182.932536,73.3006012 C182.932536,63.501002 181.006982,54.002004 177.216046,45.0561122" id="Fill-3" fill="#BDBDBD"></path>
                        <path d="M110.299016,233.344689 C86.1333076,233.344689 66.4806172,213.709419 66.4806172,189.56513 C66.4806172,165.420842 86.1333076,145.773547 110.299016,145.773547 L110.299016,144.511022 C104.221485,144.511022 98.3124397,145.701403 92.7524012,148.058116 C87.384918,150.330661 82.5589971,153.577154 78.419055,157.713427 C74.2791128,161.849699 71.0297396,166.659319 68.7551784,172.034068 C66.4084089,177.577154 65.216972,183.480962 65.216972,189.56513 C65.216972,195.649299 66.4084089,201.541082 68.7551784,207.096192 C71.0297396,212.458918 74.2791128,217.280561 78.419055,221.416834 C82.5589971,225.553106 87.384918,228.799599 92.7524012,231.072144 C98.3124397,233.416834 104.221485,234.607214 110.299016,234.607214 L110.299016,233.344689" id="Fill-4" fill="#BDBDBD"></path>
                        <path d="M191.636644,163.854709 L191.636644,163.854709 C190.818284,164.684369 189.48243,164.684369 188.664069,163.854709 L172.898592,148.11523 C172.068197,147.285571 172.068197,145.950902 172.898592,145.133267 C173.716953,144.303607 175.052806,144.303607 175.883202,145.133267 L191.636644,160.872745 C192.46704,161.702405 192.46704,163.037074 191.636644,163.854709" id="Fill-9" fill="#E9BE29"></path>
                        <path d="M172.898592,163.854709 L172.898592,163.854709 C173.716953,164.684369 175.052806,164.684369 175.883202,163.854709 L191.636644,148.11523 C192.46704,147.285571 192.46704,145.950902 191.636644,145.133267 C190.818284,144.303607 189.48243,144.303607 188.664069,145.133267 L172.898592,160.872745 C172.068197,161.702405 172.068197,163.037074 172.898592,163.854709" id="Fill-10" fill="#E9BE29"></path>
                        <path d="M223.551707,117.745491 L223.551707,117.745491 C223.551707,120.390782 221.397493,122.531062 218.749855,122.531062 L158.022681,122.531062 C155.375043,122.531062 153.220829,120.390782 153.220829,117.745491 C153.220829,115.088176 155.375043,112.947896 158.022681,112.947896 L218.749855,112.947896 C221.397493,112.947896 223.551707,115.088176 223.551707,117.745491" id="Fill-11" fill="#E4E4E4"></path>
                        <path d="M133.211109,143.533066 C133.211109,153.501002 125.111745,161.593186 115.134966,161.593186 C105.146152,161.593186 97.0588235,153.501002 97.0588235,143.533066 C97.0588235,133.56513 105.146152,125.472946 115.134966,125.472946 C125.111745,125.472946 133.211109,133.56513 133.211109,143.533066" id="Fill-16" fill="#EF6036"></path>
                        <path d="M79.6089836,143.509018 C83.6767175,143.509018 87.2269585,146.274549 88.2017705,150.230461 C91.2104494,162.314629 102.137971,171.272545 115.171568,171.272545 C128.19313,171.272545 139.132687,162.314629 142.141365,150.230461 C143.116177,146.274549 146.666419,143.509018 150.734152,143.509018 C156.474712,143.509018 160.722966,148.883768 159.351009,154.438878 C154.440845,174.266533 136.533188,188.971944 115.171568,188.971944 C93.8099479,188.971944 75.8902565,174.266533 70.9921273,154.438878 C69.6201697,148.883768 73.8684243,143.509018 79.6089836,143.509018" id="Fill-18" fill="#E4E4E4"></path>
                        <path d="M26.7843277,71.3208608 C13.7386961,74.5433057 3.46104903,84.8118428 0.235745272,97.8459109 C-0.859413841,102.294809 2.53437594,106.57537 7.11960255,106.57537 C10.3689757,106.57537 13.1971339,104.362945 13.9793904,101.212644 C15.9530837,93.2887967 22.1870664,87.0483157 30.1179439,85.0643478 C33.2830741,84.2707606 35.5215312,81.4571334 35.5215312,78.1986163 C35.5215312,73.617454 31.2371725,70.2266724 26.7843277,71.3208608" id="Fill-19" fill="#E4E4E4"></path>
                        <path d="M218.398843,84.9799599 L203.114754,74.1703407 L218.398843,63.3486974 L218.398843,84.9799599" id="Fill-23" fill="#BDBDBD"></path>
                        <path d="M165.585227,71.2965932 C165.585227,72.5591182 164.550241,73.5811623 163.286596,73.5811623 C162.022951,73.5811623 161,72.5591182 161,71.2965932 C161,70.0340681 162.022951,69 163.286596,69 C164.550241,69 165.585227,70.0340681 165.585227,71.2965932" id="Fill-28" fill="#BDBDBD"></path>
                        <path d="M172.585227,77.2845691 C172.585227,78.5591182 171.562276,79.5811623 170.298631,79.5811623 C169.022951,79.5811623 168,78.5591182 168,77.2845691 C168,76.0220441 169.022951,75 170.298631,75 C171.562276,75 172.585227,76.0220441 172.585227,77.2845691" id="Fill-29" fill="#BDBDBD"></path>
                        <path d="M179.585227,84.2965932 C179.585227,85.5591182 178.550241,86.5811623 177.286596,86.5811623 C176.022951,86.5811623 175,85.5591182 175,84.2965932 C175,83.0340681 176.022951,82 177.286596,82 C178.550241,82 179.585227,83.0340681 179.585227,84.2965932" id="Fill-30" fill="#BDBDBD"></path>
                        <path d="M79.7729605,118.320641 L41.0211765,157.038076 L40.3953713,156.42485 L79.15919,117.707415 L79.7729605,118.320641" id="Fill-35" fill="#E4E4E4"></path>
                        <path d="M83.3863838,113.878758 C84.9629315,115.453908 84.9629315,118.003006 83.3863838,119.578156 C81.8098361,121.153307 79.2584764,121.153307 77.6819286,119.578156 C76.1053809,118.003006 76.1053809,115.453908 77.6819286,113.878758 C79.2584764,112.303607 81.8098361,112.303607 83.3863838,113.878758" id="Fill-36" fill="#E4E4E4"></path>
                        <path d="M42.5184957,154.960922 C44.0950434,156.536072 44.0950434,159.08517 42.5184957,160.660321 C40.9539826,162.235471 38.3905882,162.235471 36.8140405,160.660321 C35.2374928,159.08517 35.2374928,156.536072 36.8140405,154.960922 C38.3905882,153.385772 40.9539826,153.385772 42.5184957,154.960922" id="Fill-37" fill="#E4E4E4"></path>
                        <path d="M41.0833558,73.0801603 C41.0833558,74.5831663 39.8558149,75.8096192 38.3514754,75.8096192 C36.847136,75.8096192 35.6316297,74.5831663 35.6316297,73.0801603 C35.6316297,71.5771543 36.847136,70.3627255 38.3514754,70.3627255 C39.8558149,70.3627255 41.0833558,71.5771543 41.0833558,73.0801603" id="Fill-41" fill="#EF6036"></path>
                        <path d="M220.35649,30.1893788 L189.186577,61.3316633 C188.921813,61.5961924 188.500598,61.5961924 188.235834,61.3316633 L188.019209,61.1152305 C187.754446,60.8507014 187.754446,60.4178357 188.019209,60.1653307 L219.189122,29.0230461 C219.51406,28.6983968 220.031553,28.6983968 220.35649,29.0230461 C220.681427,29.3476954 220.681427,29.8647295 220.35649,30.1893788" id="Fill-43" fill="#BDBDBD"></path>
                        <path d="M235.388852,15.1713427 L224.040116,26.497996 C223.775352,26.7625251 223.354137,26.7625251 223.089373,26.497996 L222.860714,26.2815631 C222.607985,26.0170341 222.607985,25.5961924 222.860714,25.3316633 L234.20945,13.992986 C234.534388,13.6683367 235.063915,13.6683367 235.388852,13.992986 C235.701755,14.3176353 235.701755,14.8466934 235.388852,15.1713427" id="Fill-44" fill="#E4E4E4"></path>
                        <path d="M244.340675,6.40380762 L239.334233,11.3937876 C239.06947,11.6583166 238.648255,11.6583166 238.383491,11.3937876 L238.154831,11.1773547 C237.902102,10.9128257 237.902102,10.491984 238.154831,10.2274549 L243.161273,5.2254509 C243.48621,4.9008016 244.015738,4.9008016 244.340675,5.2254509 C244.665612,5.5501002 244.665612,6.07915832 244.340675,6.40380762" id="Fill-45" fill="#E4E4E4"></path>
                        <path d="M36.1260559,123.747495 L67.2959691,92.6052104 C67.5486982,92.3406814 67.9819479,92.3406814 68.2467117,92.6052104 L68.4633365,92.8336673 C68.7281003,93.0861723 68.7281003,93.5190381 68.4633365,93.7835671 L37.2934233,124.913828 C36.968486,125.238477 36.4509932,125.238477 36.1260559,124.913828 C35.8011186,124.601202 35.8011186,124.072144 36.1260559,123.747495" id="Fill-46" fill="#BDBDBD"></path>
                        <path d="M21.0826615,138.751503 L32.4313983,127.42485 C32.696162,127.160321 33.117377,127.160321 33.3821408,127.42485 L33.6108004,127.641283 C33.8635294,127.905812 33.8635294,128.326653 33.6108004,128.591182 L22.2620636,139.92986 C21.9371263,140.254509 21.4075988,140.254509 21.0826615,139.92986 C20.7577242,139.60521 20.7577242,139.076152 21.0826615,138.751503" id="Fill-47" fill="#BDBDBD"></path>
                        <path d="M12.0566249,147.695391 L17.0630665,142.705411 C17.3278303,142.440882 17.7490453,142.440882 18.0138091,142.705411 L18.2304339,142.921844 C18.4951977,143.186373 18.4951977,143.607214 18.2304339,143.871743 L13.236027,148.873747 C12.9110897,149.198397 12.3815622,149.198397 12.0566249,148.873747 C11.7316876,148.549098 11.7316876,148.02004 12.0566249,147.695391" id="Fill-48" fill="#BDBDBD"></path>
                        <path d="M115.612343,130.482966 L115.612343,156.671343 C122.845207,156.671343 128.706114,150.803607 128.706114,143.577154 C128.706114,136.350701 122.845207,130.482966 115.612343,130.482966" id="Fill-49" fill="#FFFFFF"></path>
                    </g>
                </g>
                <path d="M1084.78422,1195.88176 C1084.78422,1198.58717 1082.59391,1200.77555 1079.88609,1200.77555 C1077.19032,1200.77555 1075,1198.58717 1075,1195.88176 C1075,1193.18838 1077.19032,1191 1079.88609,1191 C1082.59391,1191 1084.78422,1193.18838 1084.78422,1195.88176" id="Fill-40" fill="#BDBDBD"></path>
                <path d="M1094.28409,1107.63126 L1079,1096.82164 L1094.28409,1086 L1094.28409,1107.63126" id="Fill-23" fill="#BDBDBD"></path>
                <g id="Group-7" transform="translate(1064.000000, 1014.000000)" fill="#BDBDBD">
                    <path d="M4.58522662,2.29659319 C4.58522662,3.55911824 3.55024108,4.58116232 2.28659595,4.58116232 C1.02295082,4.58116232 0,3.55911824 0,2.29659319 C0,1.03406814 1.02295082,0 2.28659595,0 C3.55024108,0 4.58522662,1.03406814 4.58522662,2.29659319" id="Fill-28"></path>
                    <path d="M11.5852266,8.28456914 C11.5852266,9.55911824 10.5622758,10.5811623 9.29863067,10.5811623 C8.02295082,10.5811623 7,9.55911824 7,8.28456914 C7,7.02204409 8.02295082,6 9.29863067,6 C10.5622758,6 11.5852266,7.02204409 11.5852266,8.28456914" id="Fill-29"></path>
                    <path d="M18.5852266,15.2965932 C18.5852266,16.5591182 17.5502411,17.5811623 16.2865959,17.5811623 C15.0229508,17.5811623 14,16.5591182 14,15.2965932 C14,14.0340681 15.0229508,13 16.2865959,13 C17.5502411,13 18.5852266,14.0340681 18.5852266,15.2965932" id="Fill-30"></path>
                </g>
                <path d="M561.083356,1083.08016 C561.083356,1084.58317 559.855815,1085.80962 558.351475,1085.80962 C556.847136,1085.80962 555.63163,1084.58317 555.63163,1083.08016 C555.63163,1081.57715 556.847136,1080.36273 558.351475,1080.36273 C559.855815,1080.36273 561.083356,1081.57715 561.083356,1083.08016" id="Fill-41" fill="#EF6036"></path>
                <g id="Group-8" opacity="0.5" transform="translate(245.000000, 938.000000)">
                    <path d="M33.3564899,26.1893788 L2.18657666,57.3316633 C1.92181292,57.5961924 1.50059788,57.5961924 1.23583414,57.3316633 L1.01920926,57.1152305 C0.754445516,56.8507014 0.754445516,56.4178357 1.01920926,56.1653307 L32.1891225,25.0230461 C32.5140598,24.6983968 33.0315526,24.6983968 33.3564899,25.0230461 C33.6814272,25.3476954 33.6814272,25.8647295 33.3564899,26.1893788" id="Fill-43" fill="#BDBDBD"></path>
                    <path d="M48.3888525,11.1713427 L37.0401157,22.497996 C36.775352,22.7625251 36.3541369,22.7625251 36.0893732,22.497996 L35.8607136,22.2815631 C35.6079846,22.0170341 35.6079846,21.5961924 35.8607136,21.3316633 L47.2094503,9.99298597 C47.5343877,9.66833667 48.0639151,9.66833667 48.3888525,9.99298597 C48.7017551,10.3176353 48.7017551,10.8466934 48.3888525,11.1713427" id="Fill-44" fill="#E4E4E4"></path>
                    <path d="M57.340675,2.40380762 L52.3342334,7.39378758 C52.0694696,7.65831663 51.6482546,7.65831663 51.3834908,7.39378758 L51.1548312,7.17735471 C50.9021022,6.91282565 50.9021022,6.49198397 51.1548312,6.22745491 L56.1612729,1.2254509 C56.4862102,0.900801603 57.0157377,0.900801603 57.340675,1.2254509 C57.6656123,1.5501002 57.6656123,2.07915832 57.340675,2.40380762" id="Fill-45" fill="#E4E4E4"></path>
                </g>
                <g id="Group-2" opacity="0.3" transform="translate(84.000000, 1307.000000)">
                    <path d="M52,52.2573068 C37.5269621,52.2573068 25.7568073,40.7066595 25.7568073,26.5035366 C25.7568073,12.3004137 37.5269621,0.74269318 52,0.74269318 L52,0 C48.3601175,0 44.8211426,0.70025357 41.4911906,2.08661417 C38.2765617,3.4234619 35.3862787,5.33324436 32.906834,7.76644869 C30.4273892,10.199653 28.4813134,13.0289604 27.1190603,16.1907113 C25.7135611,19.4514881 25,22.9244628 25,26.5035366 C25,30.0826104 25.7135611,33.5485119 27.1190603,36.8163619 C28.4813134,39.9710396 30.4273892,42.8074203 32.906834,45.2406246 C35.3862787,47.6738289 38.2765617,49.5836114 41.4911906,50.9204591 C44.8211426,52.2997464 48.3601175,53 52,53 L52,52.2573068" id="Fill-4" fill="#BDBDBD"></path>
                    <path d="M10.417174,17.9918011 C12.2113313,25.1684739 18.7277106,30.4884951 26.5,30.4884951 C34.2651128,30.4884951 40.7886687,25.1684739 42.582826,17.9918011 C43.164133,15.6424226 45.2812386,14 47.7069392,14 C51.1301914,14 53.6635415,17.1920127 52.8454057,20.4911399 C49.917341,32.2665961 39.2385168,41 26.5,41 C13.7614832,41 3.07548234,32.2665961 0.154594261,20.4911399 C-0.663541466,17.1920127 1.86980864,14 5.29306076,14 C7.71876142,14 9.83586703,15.6424226 10.417174,17.9918011 Z" id="Fill-18" fill="#E4E4E4"></path>
                </g>
                <path d="M1034.84209,1055.75611 C1029.88371,1056.98089 1025.97739,1060.88375 1024.75152,1065.83773 C1024.33528,1067.52866 1025.62518,1069.15562 1027.36793,1069.15562 C1028.60295,1069.15562 1029.67788,1068.31472 1029.9752,1067.11735 C1030.72536,1064.10567 1033.09476,1061.73379 1036.10913,1060.97972 C1037.31213,1060.6781 1038.16292,1059.6087 1038.16292,1058.3702 C1038.16292,1056.629 1036.53452,1055.34023 1034.84209,1055.75611" id="Fill-19" fill="#E4E4E4" transform="translate(1031.417917, 1062.416594) rotate(-324.000000) translate(-1031.417917, -1062.416594) "></path>
                <path d="M1073.12606,1068.74749 L1104.29597,1037.60521 C1104.5487,1037.34068 1104.98195,1037.34068 1105.24671,1037.60521 L1105.46334,1037.83367 C1105.7281,1038.08617 1105.7281,1038.51904 1105.46334,1038.78357 L1074.29342,1069.91383 C1073.96849,1070.23848 1073.45099,1070.23848 1073.12606,1069.91383 C1072.80112,1069.6012 1072.80112,1069.07214 1073.12606,1068.74749" id="Fill-46" fill="#BDBDBD"></path>
                <path d="M1058.08266,1083.7515 L1069.4314,1072.42485 C1069.69616,1072.16032 1070.11738,1072.16032 1070.38214,1072.42485 L1070.6108,1072.64128 C1070.86353,1072.90581 1070.86353,1073.32665 1070.6108,1073.59118 L1059.26206,1084.92986 C1058.93713,1085.25451 1058.4076,1085.25451 1058.08266,1084.92986 C1057.75772,1084.60521 1057.75772,1084.07615 1058.08266,1083.7515" id="Fill-47" fill="#BDBDBD"></path>
                <path d="M1049.05662,1092.69539 L1054.06307,1087.70541 C1054.32783,1087.44088 1054.74905,1087.44088 1055.01381,1087.70541 L1055.23043,1087.92184 C1055.4952,1088.18637 1055.4952,1088.60721 1055.23043,1088.87174 L1050.23603,1093.87375 C1049.91109,1094.1984 1049.38156,1094.1984 1049.05662,1093.87375 C1048.73169,1093.5491 1048.73169,1093.02004 1049.05662,1092.69539" id="Fill-48" fill="#BDBDBD"></path>
                <path d="M635.612343,1140.48297 L635.612343,1166.67134 C642.845207,1166.67134 648.706114,1160.80361 648.706114,1153.57715 C648.706114,1146.3507 642.845207,1140.48297 635.612343,1140.48297" id="Fill-49" fill="#FFFFFF"></path>
                <path d="M999.296393,824.311623 L999.296393,824.311623 C1005.01288,830.023046 1014.27961,830.023046 1019.9961,824.311623 L1075.37986,768.976954 C1081.10839,763.265531 1081.10839,754.007014 1075.37986,748.283567 C1069.66338,742.572144 1060.39664,742.572144 1054.68015,748.283567 L999.296393,803.618236 C993.567869,809.341683 993.567869,818.6002 999.296393,824.311623" id="Fill-12" fill="#EF6036"></path>
                <path d="M51.6186827,1088.03318 L51.6186827,1088.03318 C52.4435929,1088.85395 53.7798111,1088.85395 54.6013126,1088.03318 L65.0013172,1077.59812 C65.8262274,1076.77394 65.8262274,1075.43891 65.0013172,1074.61813 C64.176407,1073.79396 62.8401888,1073.79396 62.0186873,1074.61813 L51.6186827,1085.04979 C50.7937724,1085.87397 50.7937724,1087.209 51.6186827,1088.03318" id="Fill-6" fill="#BDBDBD" opacity="0.2"></path>
                <g id="Group-4" transform="translate(31.000000, 124.000000)" fill="#E4E4E4">
                    <path d="M19.26682,19.1644828 L19.26682,19.1644828 C18.4521623,19.9784184 17.1314294,19.9784184 16.3167718,19.1644828 L0.714843113,3.57638354 C-0.0998145538,2.76244797 -0.0998145538,1.43671959 0.714843113,0.62278403 C1.52950078,-0.191151534 2.85023366,-0.191151534 3.66489133,0.62278403 L19.26682,16.2108833 C20.0876493,17.030985 20.0876493,18.3505472 19.26682,19.1644828" id="Fill-7"></path>
                    <path d="M0.714843113,19.1644828 L0.714843113,19.1644828 C1.52950078,19.9784184 2.85023366,19.9784184 3.66489133,19.1644828 L19.26682,3.57638354 C20.0876493,2.76244797 20.0876493,1.43671959 19.26682,0.62278403 C18.4521623,-0.191151534 17.1314294,-0.191151534 16.3167718,0.62278403 L0.714843113,16.2108833 C-0.0998145538,17.030985 -0.0998145538,18.3505472 0.714843113,19.1644828" id="Fill-8"></path>
                </g>
                <path d="M1125.08636,522.610005 C1119.67603,521.276752 1115.42147,517.02596 1114.08703,511.620425 C1113.62919,509.779531 1115.03621,508 1116.93458,508 C1118.28576,508 1119.45828,508.920447 1119.78212,510.225808 C1120.5973,513.511525 1123.18242,516.094356 1126.46547,516.919969 C1127.77757,517.24352 1128.71,518.409419 1128.71,519.764987 C1128.71,521.661666 1126.92889,523.067439 1125.08636,522.610005" id="Fill-20" fill="#E4E4E4"></path>
                <path d="M1171.95153,515.250501 C1169.95377,513.254509 1167.42648,511.91984 1164.6585,511.378758 L1155.66856,509.635271 C1152.63581,509.046092 1149.8919,507.579158 1147.70158,505.402806 C1145.5233,503.226453 1144.0671,500.472946 1143.4774,497.45491 L1141.72033,488.472946 C1140.61313,482.785571 1136.22046,478.396794 1130.52804,477.290581 L1121.53811,475.53507 C1118.5174,474.945892 1115.76145,473.490982 1113.58316,471.314629 C1111.40488,469.126253 1109.93664,466.38477 1109.34694,463.354709 L1107.60191,454.372745 C1106.49472,448.685371 1102.10204,444.296593 1096.40962,443.190381 L1087.41969,441.446894 C1084.38694,440.857715 1081.64303,439.390782 1079.46474,437.214429 C1077.27443,435.038076 1075.81823,432.284569 1075.22852,429.266533 L1073.47146,420.284569 C1072.92989,417.458918 1071.55794,414.90982 1069.5,412.88978 L1070.39057,412 C1072.61699,414.188377 1074.12133,416.965932 1074.71103,420.044088 L1076.4681,429.026052 C1077.57529,434.713427 1081.96797,439.102204 1087.66039,440.208417 L1096.65032,441.951904 C1099.67103,442.541082 1102.42698,444.008016 1104.60527,446.184369 C1106.78355,448.360721 1108.25178,451.114228 1108.84149,454.132265 L1110.58652,463.114228 C1111.69371,468.801603 1116.08638,473.190381 1121.7788,474.296593 L1130.76874,476.052104 C1133.80149,476.641283 1136.55743,478.096192 1138.73572,480.272545 C1140.914,482.460922 1142.3702,485.202405 1142.9599,488.232465 L1144.71697,497.214429 C1145.82417,502.901804 1150.21684,507.290581 1155.90926,508.396794 L1164.89919,510.140281 C1167.9199,510.729459 1170.66382,512.184369 1172.8421,514.360721 L1171.95153,515.250501" id="Fill-21" fill="#E4E4E4"></path>
                <path d="M1121,447.855711 L1129.37616,441.927856 L1121,436 L1121,447.855711" id="Fill-24" fill="#EF6036"></path>
                <path d="M1081.60908,216.110106 L1042.52767,177.155253 C1040.49078,175.116526 1040.49078,171.814125 1042.52767,169.783822 C1044.57302,167.745095 1047.88615,167.745095 1049.9315,169.783822 L1089.01291,208.738675 C1091.04981,210.768977 1091.04981,214.071378 1089.01291,216.110106 C1086.96756,218.140408 1083.65443,218.140408 1081.60908,216.110106 Z" id="Fill-5" fill="#E4E4E4" opacity="0.5"></path>
                <path d="M1039.64807,84.4892332 C1037.56891,73.840675 1029.3199,65.6183705 1018.63674,63.5459454 L1002.13871,60.3446383 C996.695712,59.2915768 991.751373,56.6715597 987.82971,52.7625953 C983.916498,48.8536308 981.279517,43.9253028 980.223034,38.4999298 L977.011327,22.0637453 C974.940621,11.4067626 966.691605,3.18445809 956,1.12045748 L956.219748,0 C961.662747,1.05306154 966.607086,3.68150313 970.52875,7.58204307 C974.441961,11.4910075 977.078942,16.4193355 978.135425,21.8447085 L981.347132,38.2893175 C983.42629,48.9378758 991.666855,57.1601802 1002.35846,59.2326053 L1018.85649,62.4254879 C1024.29104,63.4869739 1029.23538,66.1069911 1033.15704,70.0159555 C1037.07871,73.9164954 1039.70723,78.8532479 1040.76372,84.2701964 L1039.64807,84.4892332" id="Fill-22" fill="#F0F0F0"></path>
                <path d="M1104.57292,157.127427 L1055.12953,206.402282 L1054.34351,205.618804 L1103.77845,156.343949 L1104.57292,157.127427" id="Fill-25" fill="#E4E4E4" opacity="0.5"></path>
                <path d="M1109.48037,151.541988 C1111.49191,153.538593 1111.49191,156.790447 1109.48037,158.795476 C1107.46882,160.792081 1104.2064,160.792081 1102.20331,158.795476 C1100.19177,156.790447 1100.19177,153.538593 1102.20331,151.541988 C1104.2064,149.536959 1107.46882,149.536959 1109.48037,151.541988" id="Fill-26" fill="#EF6036" opacity="0.5"></path>
                <path d="M1056.80861,203.389122 C1058.82015,205.394151 1058.82015,208.646005 1056.80861,210.64261 C1054.79707,212.647639 1051.5431,212.647639 1049.53156,210.64261 C1047.52002,208.646005 1047.52002,205.394151 1049.53156,203.389122 C1051.5431,201.384093 1054.79707,201.384093 1056.80861,203.389122" id="Fill-27" fill="#EF6036" opacity="0.5"></path>
                <g id="Group-3" opacity="0.5" transform="translate(1059.961832, 136.025478)" fill="#E4E4E4">
                    <path d="M4.17557164,20.569802 C4.17557164,19.4156466 3.23741503,18.4889524 2.0879619,18.4889524 C0.938508764,18.4889524 0.00880402217,19.4156466 0.00880402217,20.569802 C0.00880402217,21.715533 0.938508764,22.6422271 2.0879619,22.6422271 C3.23741503,22.6422271 4.17557164,21.715533 4.17557164,20.569802" id="Fill-31"></path>
                    <path d="M8.25922928,12.3460935 C7.10132428,12.3460935 6.17161954,13.2727876 6.17161954,14.4185186 C6.17161954,15.5642495 7.10132428,16.4993682 8.25922928,16.4993682 C9.40868241,16.4993682 10.3383872,15.5642495 10.3383872,14.4185186 C10.3383872,13.2727876 9.40868241,12.3460935 8.25922928,12.3460935 Z" id="Fill-32"></path>
                    <path d="M16.5096545,8.45959435 C16.5096545,7.3138634 15.5714979,6.37874475 14.4220448,6.37874475 C13.2725917,6.37874475 12.3344351,7.3138634 12.3344351,8.45959435 C12.3344351,9.6053253 13.2725917,10.5404439 14.4220448,10.5404439 C15.5714979,10.5404439 16.5096545,9.6053253 16.5096545,8.45959435" id="Fill-33"></path>
                    <path d="M22.4879378,2.31673538 C22.4879378,1.16257994 21.5497812,0.235885784 20.400328,0.235885784 C19.2508749,0.235885784 18.3211701,1.16257994 18.3211701,2.31673538 C18.3211701,3.46246633 19.2508749,4.38916049 20.400328,4.38916049 C21.5497812,4.38916049 22.4879378,3.46246633 22.4879378,2.31673538" id="Fill-34"></path>
                </g>
                <path d="M72,68 L72,84.9058116 C76.6694696,84.9058116 80.460405,81.1302605 80.460405,76.4529058 C80.460405,71.7875752 76.6694696,68 72,68" id="Fill-50" fill="#EF6036"></path>
            </g>
        </g>
    </g>
</svg>