<?xml version="1.0" encoding="UTF-8" standalone="no"?>
<svg width="84px" height="84px" viewBox="0 0 84 84" version="1.1" xmlns="http://www.w3.org/2000/svg" xmlns:xlink="http://www.w3.org/1999/xlink">
    <!-- Generator: Sketch 3.6.1 (26313) - http://www.bohemiancoding.com/sketch -->
    <title>Group 12</title>
    <desc>Created with Sketch.</desc>
    <defs></defs>
    <g id="Page-1" stroke="none" stroke-width="1" fill="none" fill-rule="evenodd">
        <g id="Labs" transform="translate(-274.000000, -570.000000)">
            <g id="Group-12" transform="translate(274.000000, 570.000000)">
                <rect id="Rectangle-2" stroke="#F0F0F0" stroke-width="4" fill="#FFFFFF" transform="translate(41.771300, 41.771300) rotate(-315.000000) translate(-41.771300, -41.771300) " x="13.1334758" y="11.3355855" width="57.2756493" height="60.8714299"></rect>
                <g id="Group-9" opacity="0.5" transform="translate(26.000000, 27.000000)">
                    <ellipse id="Oval" fill="#000000" cx="16.0017217" cy="14.4469853" rx="2.97837477" ry="3.04998532"></ellipse>
                    <path d="M16.0017217,8.24572746 C20.0005937,8.24572746 23.7154434,8.83332704 26.516423,9.82078616 C29.8912059,11.0105157 31.9661596,12.8139874 31.9661596,14.4469853 C31.9661596,16.1487442 29.7670649,18.0645681 26.1430501,19.2941803 C23.403102,20.2238218 19.7977291,20.7090398 16.0017217,20.7090398 C12.109833,20.7090398 8.42443043,20.2535514 5.65426345,19.2839057 C2.14874954,18.0569078 0.037283859,16.116218 0.037283859,14.4469853 C0.037283859,12.8272411 2.01843414,11.0377526 5.34578108,9.84978616 C8.15720965,8.84609434 11.9637848,8.24572746 16.0017217,8.24572746 L16.0017217,8.24572746 Z" id="Shape" stroke="#000000" stroke-width="1.44"></path>
                    <path d="M10.7301521,11.3642306 C12.7278664,7.81686792 15.0807866,4.81497275 17.315384,2.82351782 C20.0077774,0.4241174 22.569974,-0.515616352 23.9513766,0.30015304 C25.390961,1.15027254 25.9130538,4.0582369 25.1427384,7.88733124 C24.5603265,10.7823459 23.1696623,14.2230713 21.2732913,17.5905367 C19.3290093,21.0430566 17.1026048,24.0847736 14.8984045,26.0578071 C12.10918,28.5546038 9.41269017,29.4581027 8.00059369,28.6242159 C6.63041187,27.8150126 6.10635993,25.1636101 6.76369573,21.6184361 C7.31909462,18.6229853 8.71290538,14.9463082 10.7301521,11.3642306 L10.7301521,11.3642306 Z" id="Shape" stroke="#000000" stroke-width="1.44"></path>
                    <path d="M10.7351985,17.5995346 C8.73172542,14.0555765 7.3671243,10.4688784 6.79830798,7.49178826 C6.11294991,3.90484696 6.59752134,1.16231027 7.97761781,0.344169811 C9.41577737,-0.508442348 12.1367273,0.480597484 14.9914954,3.07637107 C17.1499221,5.03888679 19.3662931,7.99098952 21.2681855,11.3552327 C23.2181076,14.8044088 24.6795993,18.2987568 25.2480594,21.239673 C25.967436,24.961218 25.3851429,27.8047379 23.9744119,28.6410566 C22.6055362,29.4525702 20.1006308,28.593392 17.4296104,26.2396499 C15.1728089,24.2509308 12.7583228,21.1781468 10.7351985,17.5995346 L10.7351985,17.5995346 Z" id="Shape" stroke="#000000" stroke-width="1.44"></path>
                </g>
            </g>
        </g>
    </g>
</svg>