<?xml version="1.0" encoding="UTF-8" standalone="no"?>
<svg width="84px" height="84px" viewBox="0 0 84 84" version="1.1" xmlns="http://www.w3.org/2000/svg" xmlns:xlink="http://www.w3.org/1999/xlink">
    <!-- Generator: Sketch 3.6.1 (26313) - http://www.bohemiancoding.com/sketch -->
    <title>Group 24</title>
    <desc>Created with Sketch.</desc>
    <defs></defs>
    <g id="Page-1" stroke="none" stroke-width="1" fill="none" fill-rule="evenodd">
        <g id="Group-24">
            <g id="Group-12" stroke="#F0F0F0" stroke-width="4" fill="#FFFFFF">
                <rect id="Rectangle-2" transform="translate(41.771300, 41.771300) rotate(-315.000000) translate(-41.771300, -41.771300) " x="13.1334758" y="11.3355855" width="57.2756493" height="60.8714299"></rect>
            </g>
            <g id="Group-22" transform="translate(27.000000, 28.000000)" fill="#7F7F7F">
                <path d="M14.3731654,0.102134638 C13.1863267,0.107600573 12.0529223,0.207925021 11.0556431,0.382831541 C8.11778357,0.897261719 7.58438217,1.97400819 7.58438191,3.9597121 L7.58438191,6.58222316 L14.5269042,6.58222316 L14.5269042,7.45639351 L7.58438191,7.45639351 L4.97891316,7.45639351 C2.96122288,7.45639351 1.19447551,8.65840938 0.641859537,10.945055 C0.00442400179,13.5660817 -0.0238497295,15.201645 0.641859537,17.9384178 C1.13535883,19.9755657 2.31390197,21.4270788 4.33159173,21.4270794 L6.7185895,21.4270794 L6.7185895,18.283274 C6.7185895,16.0120603 8.70124286,14.0086617 11.0556431,14.0086612 L17.9900739,14.0086612 C19.9203737,14.0086612 21.4613358,12.4333802 21.461335,10.5119798 L21.461335,3.9597121 C21.461335,2.09489943 19.8741081,0.694061235 17.9900739,0.382831541 C16.7974522,0.186061331 15.5600041,0.0966687027 14.3731654,0.102134638 L14.3731654,0.102134638 Z M10.6187011,2.21137139 C11.335816,2.21137139 11.9214355,2.80128939 11.9214355,3.52663688 C11.921435,4.24941337 11.335816,4.83388245 10.6187011,4.83388245 C9.89901536,4.83388219 9.31596673,4.24941312 9.31596673,3.52663688 C9.31596647,2.80128965 9.89901536,2.21137139 10.6187011,2.21137139 L10.6187011,2.21137139 Z" id="path1948"></path>
                <path d="M22.3271274,7.45639351 L22.3271274,10.5119798 C22.3271274,12.8809346 20.3007796,14.8748114 17.9900739,14.8748117 L11.0556431,14.8748117 C9.15618631,14.8748117 7.58438217,16.4861038 7.58438191,18.3714931 L7.58438191,24.92376 C7.58438191,26.7885729 9.22044487,27.885435 11.0556431,28.4204414 C13.2532556,29.0609077 15.3606509,29.1766562 17.9900739,28.4204414 C19.7378819,27.9188723 21.4613358,26.9094619 21.461335,24.92376 L21.461335,22.3012497 L14.5269042,22.3012497 L14.5269042,21.4270794 L21.461335,21.4270794 L24.9325972,21.4270794 C26.9502878,21.4270794 27.702162,20.0321516 28.4038558,17.9384178 C29.1286823,15.7829515 29.0978413,13.7101214 28.4038558,10.945055 C27.9052163,8.95420733 26.9528537,7.45639351 24.9325972,7.45639351 L22.3271274,7.45639351 L22.3271274,7.45639351 Z M18.4270158,24.0495904 C19.1467021,24.0495912 19.7297502,24.6340603 19.7297502,25.3568352 C19.7297497,26.0821817 19.1467013,26.6721007 18.4270158,26.6721007 C17.7099002,26.6721007 17.1242815,26.0821817 17.1242815,25.3568352 C17.124282,24.6340603 17.7098994,24.0495904 18.4270158,24.0495904 L18.4270158,24.0495904 Z" id="path1950"></path>
            </g>
        </g>
    </g>
</svg>