<?xml version="1.0" encoding="UTF-8" standalone="no"?>
<svg width="337px" height="244px" viewBox="0 0 337 244" version="1.1" xmlns="http://www.w3.org/2000/svg" xmlns:xlink="http://www.w3.org/1999/xlink">
    <!-- Generator: Sketch 3.6.1 (26313) - http://www.bohemiancoding.com/sketch -->
    <title>Illustration - Modal</title>
    <desc>Created with Sketch.</desc>
    <defs></defs>
    <g id="Page-1" stroke="none" stroke-width="1" fill="none" fill-rule="evenodd" opacity="0.5">
        <g id="Illustrations" transform="translate(-88.000000, -134.000000)">
            <g id="Illustration---Modal" transform="translate(88.000000, 134.000000)">
                <g id="Group-22">
                    <rect id="Rectangle-12" fill="#F0F0F0" x="30" y="193" width="94" height="31" rx="2"></rect>
                    <rect id="Rectangle-7" stroke="#F2F2F2" stroke-width="2" x="0" y="0" width="337" height="244" rx="6"></rect>
                    <rect id="Rectangle-8" fill="#D8D8D8" x="30" y="30" width="164" height="12" rx="2"></rect>
                    <rect id="Rectangle-8" fill="#D8D8D8" opacity="0.4" x="30" y="52" width="218" height="6" rx="2"></rect>
                    <rect id="Rectangle-8" fill="#D8D8D8" opacity="0.4" x="30" y="65" width="189" height="6" rx="2"></rect>
                    <rect id="Rectangle-8" fill="#D8D8D8" opacity="0.4" x="30" y="78" width="114" height="6" rx="2"></rect>
                    <g id="Group-16" opacity="0.5" transform="translate(294.000000, 30.000000)" fill="#D8D8D8">
                        <path d="M6.36396103,4.94974747 L1.41421356,1.77635684e-15 L6.66133815e-16,1.41421356 L4.94974747,6.36396103 L0,11.3137085 L1.41421356,12.7279221 L6.36396103,7.77817459 L11.3137085,12.7279221 L12.7279221,11.3137085 L7.77817459,6.36396103 L12.7279221,1.41421356 L11.3137085,6.03961325e-14 L6.36396103,4.94974747 Z" id="Combined-Shape"></path>
                    </g>
                </g>
            </g>
        </g>
    </g>
</svg>