<?xml version="1.0" encoding="UTF-8" standalone="no"?>
<svg width="337px" height="244px" viewBox="0 0 337 244" version="1.1" xmlns="http://www.w3.org/2000/svg" xmlns:xlink="http://www.w3.org/1999/xlink">
    <!-- Generator: Sketch 3.6.1 (26313) - http://www.bohemiancoding.com/sketch -->
    <title>Illustration - Template</title>
    <desc>Created with Sketch.</desc>
    <defs></defs>
    <g id="Page-1" stroke="none" stroke-width="1" fill="none" fill-rule="evenodd" opacity="0.5">
        <g id="Illustrations" transform="translate(-88.000000, -856.000000)">
            <g id="Illustration---Template" transform="translate(88.000000, 856.000000)">
                <g id="Group-22">
                    <rect id="Rectangle-7" stroke="#F2F2F2" stroke-width="2" x="0" y="0" width="337" height="244" rx="6"></rect>
                    <path d="M233.136938,96 L233.239084,89.5191761 C233.162132,88.5697454 232.932231,87.6476628 232.439446,86.9874366 C231.788136,86.3408481 231.02388,85.8820582 230.073741,85.959316 L229.923324,85.9968192 L218.452775,84.8118557 L218.187933,83.7496328 C217.048556,79.1798403 215.411791,75.2216049 213.399227,71.6785009 L212.831518,70.6917912 L220.383884,62.0155126 C221.184138,61.3284423 221.604041,60.4147703 221.529122,59.4648328 C221.610211,58.4738407 221.232425,57.5994164 220.581114,56.9528279 L210.070729,45.9803647 C209.419418,45.3337763 208.505252,44.9145206 207.554607,44.9897474 C206.56497,44.9085857 205.687744,45.2869411 205.040445,45.9380324 L195.88615,53.3936026 L194.934005,52.8220205 C190.785085,50.46091 186.78249,48.7126566 182.937917,47.5635576 L181.870795,47.1802809 L181.234133,35.5257746 C181.202831,33.4345497 179.864769,31.9905705 177.922453,31.9851424 L162.64066,31.7504289 C160.550466,31.7840283 159.104946,33.121683 159.098269,35.0605816 L159.136249,35.212908 L157.945571,46.6736808 L156.882488,46.9387372 C152.308995,48.0790373 148.347306,49.7161372 144.80141,51.7306411 L143.813273,52.2962883 L135.13366,44.7526165 C133.651286,43.3359893 131.552448,43.3782157 130.104902,44.7077464 L119.121104,55.2168234 C118.473299,55.8658836 118.05187,56.7820935 118.128821,57.7315242 C118.047226,58.7204853 118.425012,59.5949096 119.076323,60.2414981 L126.534252,69.38845 L125.961899,70.3401321 C123.597017,74.4849544 121.844465,78.4878919 120.695116,82.3296478 L120.310653,83.3941221 L108.64757,84.0347582 C106.555344,84.0688643 105.109824,85.4065191 105.103147,87.3454176 L104.96674,96 L39.0030511,96 C37.9007466,96 37,96.8974801 37,98.0045779 L37,243.750429 L300,243.750429 L300,98.0045779 C300,96.9052099 299.103203,96 297.996949,96 L233.136938,96 Z" id="Combined-Shape" stroke="#F2F2F2" stroke-width="2" opacity="0.4"></path>
                    <rect id="Rectangle-12-Copy-2" fill="#D8D8D8" opacity="0.4" x="54" y="179" width="48" height="48" rx="2"></rect>
                    <rect id="Rectangle-12-Copy-6" fill="#D8D8D8" x="54" y="161" width="48" height="12" rx="2"></rect>
                    <rect id="Rectangle-12-Copy-7" fill="#D8D8D8" x="114" y="161" width="48" height="12" rx="2"></rect>
                    <rect id="Rectangle-12-Copy-8" fill="#D8D8D8" x="174" y="161" width="48" height="12" rx="2"></rect>
                    <rect id="Rectangle-12-Copy-9" fill="#D8D8D8" x="235" y="161" width="48" height="12" rx="2"></rect>
                    <rect id="Rectangle-12-Copy-3" fill="#D8D8D8" opacity="0.4" x="235" y="179" width="48" height="48" rx="2"></rect>
                    <rect id="Rectangle-12-Copy-4" fill="#D8D8D8" opacity="0.4" x="174" y="179" width="48" height="48" rx="2"></rect>
                    <rect id="Rectangle-12-Copy-5" fill="#D8D8D8" opacity="0.4" x="114" y="179" width="48" height="48" rx="2"></rect>
                    <rect id="Rectangle-8-Copy" fill="#D8D8D8" x="69" y="127" width="201" height="6" rx="2"></rect>
                    <rect id="Rectangle-8-Copy-2" fill="#D8D8D8" opacity="0.4" x="96" y="140" width="148" height="6" rx="2"></rect>
                    <circle id="Oval-6" stroke="#F2F2F2" stroke-width="2" opacity="0.4" cx="169" cy="96" r="15"></circle>
                </g>
            </g>
        </g>
    </g>
</svg>