<?xml version="1.0" encoding="UTF-8" standalone="no"?>
<svg width="50px" height="50px" viewBox="0 0 50 50" version="1.1" xmlns="http://www.w3.org/2000/svg" xmlns:xlink="http://www.w3.org/1999/xlink">
    <!-- Generator: Sketch 3.6.1 (26313) - http://www.bohemiancoding.com/sketch -->
    <title>logo</title>
    <desc>Created with Sketch.</desc>
    <defs></defs>
    <g id="Page-1" stroke="none" stroke-width="1" fill="none" fill-rule="evenodd">
        <g id="Labs" transform="translate(-675.000000, -156.000000)">
            <g id="logo" transform="translate(675.000000, 156.000000)">
                <ellipse id="Oval-3" fill="#FFFFFF" cx="26.037037" cy="24.6296296" rx="17.5925926" ry="17.5925926"></ellipse>
                <path d="M24.8600678,49.6111111 C38.5897483,49.6111111 49.7201356,38.5054441 49.7201356,24.8055556 C49.7201356,11.105981 38.5897483,0 24.8600678,0 C11.1300726,0 0,11.105981 0,24.8055556 C0,38.5054441 11.1300726,49.6111111 24.8600678,49.6111111 Z M24.8600678,14.8108006 L13.7306245,17.7190165 L13.7306245,22.2417915 L20.4878427,20.9493906 L20.4878427,33.5540668 L24.8600678,34.5230534 L29.2322929,33.5540668 L29.2322929,20.9493906 L35.9895111,22.2417915 L35.9895111,17.7190165 L24.8600678,14.8108006 Z M30.4513803,22.7997595 L30.4513803,34.3899198 L24.8600678,35.998513 L19.2687553,34.3899198 L19.2687553,22.7997595 L16.0734499,23.443134 L16.0734499,36.9637317 L24.8600678,38.8951111 L33.646371,36.9637317 L33.646371,23.443134 L30.4513803,22.7997595 Z M24.8600678,10.716 L15.8783456,12.9761315 L15.8783456,15.960648 L24.8600678,13.6213899 L33.84179,15.960648 L33.84179,12.9761315 L24.8600678,10.716 Z" id="Fill-9" fill="#EF6036"></path>
            </g>
        </g>
    </g>
</svg>