<?xml version="1.0" encoding="UTF-8" standalone="no"?>
<svg width="17px" height="16px" viewBox="0 0 17 16" version="1.1" xmlns="http://www.w3.org/2000/svg" xmlns:xlink="http://www.w3.org/1999/xlink">
    <!-- Generator: Sketch 39.1 (31720) - http://www.bohemiancoding.com/sketch -->
    <title>Group</title>
    <desc>Created with Sketch.</desc>
    <defs></defs>
    <g id="Page-1" stroke="none" stroke-width="1" fill="none" fill-rule="evenodd">
        <g id="Group" fill="#FFFFFF">
            <polygon id="Path" points="3.7094399 4.92365519 0.207101943 4.92365519 0.207101943 15.1372248 3.7094399 15.1372248"></polygon>
            <path d="M3.94011272,1.76418606 C3.91738117,0.762752031 3.17954989,0 1.98142214,0 C0.783294381,0 0,0.762752031 0,1.76418606 C0,2.74487693 0.760143167,3.52959232 1.93595903,3.52959232 L1.95834087,3.52959232 C3.17954989,3.52959232 3.94011272,2.74487693 3.94011272,1.76418606 Z" id="Path"></path>
            <path d="M16.3402104,9.28107614 C16.3402104,6.14390931 14.6124025,4.68382079 12.3077027,4.68382079 C10.4481916,4.68382079 9.61565719,5.6751544 9.1508144,6.37059281 L9.1508144,4.92392635 L5.64805678,4.92392635 C5.69421932,5.88231492 5.64805678,15.137496 5.64805678,15.137496 L9.1508144,15.137496 L9.1508144,9.43339607 C9.1508144,9.12814612 9.17354595,8.82364185 9.26615081,8.60509292 C9.5192754,7.99527091 10.0956077,7.36389227 11.0632026,7.36389227 C12.3310637,7.36389227 12.8378725,8.30045307 12.8378725,9.67295932 L12.8378725,15.1372248 L16.3400705,15.1372248 L16.3402104,9.28107614 Z" id="Path"></path>
        </g>
    </g>
</svg>