<?xml version="1.0" encoding="UTF-8" standalone="no"?>
<svg width="35px" height="35px" viewBox="0 0 35 35" version="1.1" xmlns="http://www.w3.org/2000/svg" xmlns:xlink="http://www.w3.org/1999/xlink">
    <!-- Generator: Sketch 39.1 (31720) - http://www.bohemiancoding.com/sketch -->
    <title>Fill 9</title>
    <desc>Created with Sketch.</desc>
    <defs></defs>
    <g id="Page-1" stroke="none" stroke-width="1" fill="none" fill-rule="evenodd" opacity="0.5">
        <path d="M17.4449997,34.9831355 C27.0794976,34.9831355 34.8899994,27.1520057 34.8899994,17.4915678 C34.8899994,7.83135129 27.0794976,0 17.4449997,0 C7.81028094,0 0,7.83135129 0,17.4915678 C0,27.1520057 7.81028094,34.9831355 17.4449997,34.9831355 Z M17.4449997,10.4437944 L9.6351604,12.4945147 L9.6351604,15.6837367 L14.376888,14.7724039 L14.376888,23.6605559 L17.4449997,24.3438341 L20.5131114,23.6605559 L20.5131114,14.7724039 L25.254839,15.6837367 L25.254839,12.4945147 L17.4449997,10.4437944 Z M21.3685789,16.0771863 L21.3685789,24.2499553 L17.4449997,25.3842502 L13.5214205,24.2499553 L13.5214205,16.0771863 L11.279186,16.53086 L11.279186,26.0648715 L17.4449997,27.4267783 L23.6105926,26.0648715 L23.6105926,16.53086 L21.3685789,16.0771863 Z M17.4449997,7.55635727 L11.1422759,9.15008265 L11.1422759,11.2546061 L17.4449997,9.60508483 L23.7477235,11.2546061 L23.7477235,9.15008265 L17.4449997,7.55635727 Z" id="Fill-9" fill="#8B97A6"></path>
    </g>
</svg>