<?xml version="1.0" encoding="UTF-8" standalone="no"?>
<svg width="15px" height="12px" viewBox="0 0 15 12" version="1.1" xmlns="http://www.w3.org/2000/svg" xmlns:xlink="http://www.w3.org/1999/xlink">
    <!-- Generator: Sketch 39.1 (31720) - http://www.bohemiancoding.com/sketch -->
    <title>Path</title>
    <desc>Created with Sketch.</desc>
    <defs></defs>
    <g id="Page-1" stroke="none" stroke-width="1" fill="none" fill-rule="evenodd">
        <path d="M7.28335593,3.19218789 L7.31587091,3.71122173 L6.77395454,3.64766657 C4.80137898,3.40403844 3.07808494,2.5778213 1.61491076,1.19020022 L0.899581163,0.501685942 L0.7153296,1.01012726 C0.325149818,2.14352768 0.574431345,3.34048327 1.38730589,4.14551535 C1.82083898,4.5904015 1.72329404,4.65395667 0.975449454,4.38914348 C0.7153296,4.30440326 0.487724727,4.2408481 0.466048073,4.27262568 C0.390179782,4.34677337 0.650299636,5.31069336 0.856227854,5.69202435 C1.13802436,6.22165072 1.71245571,6.74068456 2.34107869,7.04786785 L2.87215673,7.29149598 L2.24353375,7.30208851 C1.63658742,7.30208851 1.61491076,7.31268103 1.67994073,7.53512411 C1.89670727,8.22363839 2.75293513,8.95452277 3.70670793,9.2722986 L4.37868422,9.49474167 L3.79341454,9.83370255 C2.92634836,10.3209588 1.9075456,10.5963645 0.888742836,10.6175496 C0.401018109,10.6281421 1.46796708e-14,10.6705122 1.46796708e-14,10.7022898 C1.46796708e-14,10.8082151 1.32227593,11.4013966 2.09179716,11.6344322 C4.40036087,12.3229465 7.14245767,12.0263557 9.20173985,10.8505852 C10.664914,10.0137755 12.1280882,8.35074872 12.8109028,6.74068456 C13.179406,5.88268984 13.5479091,4.31499579 13.5479091,3.56292635 C13.5479091,3.07567009 13.5804241,3.01211493 14.1873704,2.42952592 C14.5450352,2.09056505 14.8810233,1.71982659 14.9460533,1.61390131 C15.0544366,1.4126433 15.0435983,1.4126433 14.4908436,1.59271626 C13.5695857,1.91049208 13.4395258,1.86812197 13.8947356,1.39145824 C14.2307237,1.05249736 14.6317418,0.438130778 14.6317418,0.258057813 C14.6317418,0.226280231 14.4691669,0.279242868 14.2849153,0.374575614 C14.0898255,0.480500887 13.6562924,0.639388798 13.3311425,0.734721544 L12.7458729,0.914794509 L12.2147948,0.565241106 C11.92216,0.374575614 11.5103036,0.162725067 11.293537,0.0991699024 C10.7407823,-0.0491254806 9.8953928,-0.0279404259 9.39682974,0.141540012 C8.04203883,0.618203743 7.18581098,1.84693692 7.28335593,3.19218789 Z" id="Path" fill="#FFFFFF"></path>
    </g>
</svg>